<svg width="24" height="24" viewBox="0 0 24 24" fill="none" xmlns="http://www.w3.org/2000/svg">
<g clip-path="url(#clip0_5813_10463)">
<path d="M4.475 14.7C4.30833 14.2667 4.18767 13.8294 4.113 13.388C4.03833 12.9467 4.00067 12.5007 4 12.05C4 9.81672 4.775 7.91672 6.325 6.35005C7.875 4.78338 9.76667 4.00005 12 4.00005H12.175L11.275 3.10005C11.0917 2.91672 11 2.68338 11 2.40005C11 2.11672 11.0917 1.88338 11.275 1.70005C11.4583 1.51672 11.6917 1.42505 11.975 1.42505C12.2583 1.42505 12.4917 1.51672 12.675 1.70005L15.275 4.30005C15.375 4.40005 15.4457 4.50838 15.487 4.62505C15.5283 4.74172 15.5493 4.86672 15.55 5.00005C15.55 5.13338 15.529 5.25838 15.487 5.37505C15.445 5.49172 15.3743 5.60005 15.275 5.70005L12.675 8.30005C12.4917 8.48338 12.2583 8.57505 11.975 8.57505C11.6917 8.57505 11.4583 8.48338 11.275 8.30005C11.0917 8.11672 11 7.88338 11 7.60005C11 7.31672 11.0917 7.08338 11.275 6.90005L12.175 6.00005H12C10.3333 6.00005 8.91667 6.58772 7.75 7.76305C6.58333 8.93838 6 10.3674 6 12.05C6 12.3834 6.02933 12.7084 6.088 13.025C6.14667 13.3417 6.234 13.6584 6.35 13.975C6.41667 14.1417 6.43333 14.3207 6.4 14.512C6.36667 14.7034 6.28333 14.866 6.15 15C5.85 15.3 5.529 15.421 5.187 15.363C4.845 15.305 4.60767 15.084 4.475 14.7ZM11.325 22.3L8.725 19.7001C8.625 19.6 8.554 19.4917 8.512 19.375C8.47 19.2584 8.44933 19.1334 8.45 19C8.45 18.8667 8.471 18.7417 8.513 18.625C8.555 18.5084 8.62567 18.4 8.725 18.3L11.325 15.7C11.5083 15.5167 11.7417 15.425 12.025 15.425C12.3083 15.425 12.5417 15.5167 12.725 15.7C12.9083 15.8834 13 16.1167 13 16.4C13 16.6834 12.9083 16.9167 12.725 17.1L11.825 18H12C13.6667 18 15.0833 17.4127 16.25 16.238C17.4167 15.0634 18 13.634 18 11.95C18 11.6167 17.9707 11.2917 17.912 10.975C17.8533 10.6584 17.766 10.3417 17.65 10.025C17.5833 9.85838 17.5667 9.67938 17.6 9.48805C17.6333 9.29672 17.7167 9.13405 17.85 9.00005C18.15 8.70005 18.471 8.57905 18.813 8.63705C19.155 8.69505 19.3923 8.91605 19.525 9.30005C19.6917 9.73338 19.8127 10.171 19.888 10.613C19.9633 11.055 20.0007 11.5007 20 11.95C20 14.1834 19.225 16.0834 17.675 17.65C16.125 19.2167 14.2333 20 12 20H11.825L12.725 20.9C12.9083 21.0834 13 21.3167 13 21.6C13 21.8834 12.9083 22.1167 12.725 22.3C12.5417 22.4834 12.3083 22.5751 12.025 22.5751C11.7417 22.5751 11.5083 22.4834 11.325 22.3Z" fill="#519BDE"/>
</g>
<defs>
<clipPath id="clip0_5813_10463">
<rect width="24" height="24" fill="white"/>
</clipPath>
</defs>
</svg>
